<?xml version="1.0" encoding="UTF-8"?>
<svg width="200px" height="200px" viewBox="0 0 200 200" version="1.1" xmlns="http://www.w3.org/2000/svg" xmlns:xlink="http://www.w3.org/1999/xlink">
    <!-- Generator: Sketch 61.2 (89653) - https://sketch.com -->
    <title>空调箱-关闭备份</title>
    <desc>Created with Sketch.</desc>
    <defs>
        <linearGradient x1="99.149813%" y1="84.1378091%" x2="0%" y2="15.2777778%" id="linearGradient-1">
            <stop stop-color="#C2C5C8" offset="0%"></stop>
            <stop stop-color="#EFEFEF" offset="100%"></stop>
            <stop stop-color="#EFEFEF" offset="100%"></stop>
        </linearGradient>
        <linearGradient x1="0%" y1="27.7777778%" x2="96.3371123%" y2="72.2222222%" id="linearGradient-2">
            <stop stop-color="#B2B2B2" offset="0%"></stop>
            <stop stop-color="#7A7A7A" offset="100%"></stop>
        </linearGradient>
        <linearGradient x1="0%" y1="19.1326531%" x2="96.3371123%" y2="80.8673469%" id="linearGradient-3">
            <stop stop-color="#B2B2B2" offset="0%"></stop>
            <stop stop-color="#7A7A7A" offset="100%"></stop>
        </linearGradient>
        <linearGradient x1="49.6983693%" y1="97.8264614%" x2="50.3016307%" y2="2.60985615%" id="linearGradient-4">
            <stop stop-color="#8D9399" offset="0%"></stop>
            <stop stop-color="#C3C7CB" offset="100%"></stop>
        </linearGradient>
        <linearGradient x1="11.8481455%" y1="50%" x2="71.9918378%" y2="50%" id="linearGradient-5">
            <stop stop-color="#E3E5E7" offset="0%"></stop>
            <stop stop-color="#C3C7CB" offset="100%"></stop>
        </linearGradient>
    </defs>
    <g id="20200304-上传iconfont" stroke="none" stroke-width="1" fill="none" fill-rule="evenodd">
        <g id="设备-立体" transform="translate(-1096.000000, -3623.000000)">
            <g id="空调箱" transform="translate(1096.000000, 3623.000000)">
                <g id="空调箱-关闭" transform="translate(36.000000, 45.000000)">
                    <polygon id="矩形" fill="url(#linearGradient-1)" points="0 6 120 6 120 106 -4.26325641e-13 106"></polygon>
                    <rect id="矩形" fill="#939393" x="54" y="12" width="12" height="6" rx="3"></rect>
                    <circle id="椭圆形" fill="#C1C1C1" cx="57" cy="15" r="2.25"></circle>
                    <rect id="矩形备份-117" fill="#EEEEEE" x="87" y="70" width="28" height="20"></rect>
                    <rect id="矩形备份-139" fill="#EEEEEE" x="46" y="70" width="28" height="20"></rect>
                    <rect id="矩形备份-141" fill="#EEEEEE" x="5" y="70" width="28" height="20"></rect>
                    <rect id="矩形备份-117" fill="url(#linearGradient-2)" x="89" y="72" width="24" height="16"></rect>
                    <rect id="矩形备份-140" fill="url(#linearGradient-2)" x="48" y="72" width="24" height="16"></rect>
                    <rect id="矩形备份-144" fill="url(#linearGradient-2)" x="7" y="72" width="24" height="16"></rect>
                    <g id="编组-19" transform="translate(18.000000, 106.000000)" fill="#9E9E9E">
                        <path d="M73.3,0 L83.3,0 L83.3,5 C83.3,5.55228475 82.8522847,6 82.3,6 L74.3,6 C73.7477153,6 73.3,5.55228475 73.3,5 L73.3,0 L73.3,0 Z" id="矩形"></path>
                        <path d="M0,0 L10,0 L10,5 C10,5.55228475 9.55228475,6 9,6 L1,6 C0.44771525,6 6.76353751e-17,5.55228475 0,5 L0,0 L0,0 Z" id="矩形备份-23"></path>
                    </g>
                    <g id="编组-13" transform="translate(85.000000, 21.000000)">
                        <rect id="矩形备份-40" fill="#BBBBBB" opacity="0.499441964" x="0" y="0" width="32" height="26"></rect>
                        <rect id="蒙版" fill="url(#linearGradient-3)" x="2" y="2" width="28" height="22"></rect>
                        <polygon id="路径-11" fill="#E6E6E6" fill-rule="nonzero" points="28 4 28 5 4 5 4 4"></polygon>
                        <polygon id="路径-11备份" fill="#E6E6E6" fill-rule="nonzero" points="28 7.4 28 8.4 4 8.4 4 7.4"></polygon>
                        <polygon id="路径-11备份-4" fill="#E6E6E6" fill-rule="nonzero" points="28 10.8 28 11.8 4 11.8 4 10.8"></polygon>
                        <polygon id="路径-11备份-5" fill="#E6E6E6" fill-rule="nonzero" points="28 14.2 28 15.2 4 15.2 4 14.2"></polygon>
                        <polygon id="路径-11备份-6" fill="#E6E6E6" fill-rule="nonzero" points="28 17.6 28 18.6 4 18.6 4 17.6"></polygon>
                        <polygon id="路径-11备份-7" fill="#E6E6E6" fill-rule="nonzero" points="28 21 28 22 4 22 4 21"></polygon>
                    </g>
                    <g id="编组-3" transform="translate(3.000000, 21.000000)">
                        <rect id="矩形" fill="#BBBBBB" x="0" y="0" width="32" height="26"></rect>
                        <rect id="蒙版" fill="url(#linearGradient-3)" x="2" y="2" width="28" height="22"></rect>
                        <polygon id="路径-11" fill="#E6E6E6" fill-rule="nonzero" points="28 4 28 5 4 5 4 4"></polygon>
                        <polygon id="路径-11备份" fill="#E6E6E6" fill-rule="nonzero" points="28 7.3 28 8.3 4 8.3 4 7.3"></polygon>
                        <polygon id="路径-11备份-4" fill="#E6E6E6" fill-rule="nonzero" points="28 10.6 28 11.6 4 11.6 4 10.6"></polygon>
                        <polygon id="路径-11备份-5" fill="#E6E6E6" fill-rule="nonzero" points="28 13.9 28 14.9 4 14.9 4 13.9"></polygon>
                        <polygon id="路径-11备份-6" fill="#E6E6E6" fill-rule="nonzero" points="28 17.2 28 18.2 4 18.2 4 17.2"></polygon>
                        <polygon id="路径-11备份-7" fill="#E6E6E6" fill-rule="nonzero" points="28 21 28 22 4 22 4 21"></polygon>
                    </g>
                    <polygon id="矩形备份-36" fill="url(#linearGradient-4)" transform="translate(124.000000, 54.500000) scale(-1, 1) translate(-124.000000, -54.500000) " points="120 3 128 6 128 106 120 103"></polygon>
                    <polygon id="路径-51" fill="#BBBBBB" points="0 6 10 3 128 3 120 6"></polygon>
                    <g id="编组-27" transform="translate(21.000000, 0.000000)">
                        <polygon id="矩形备份-158" fill="#CACACA" points="5 0 28 0 24 2 0 2"></polygon>
                        <rect id="矩形备份-159" fill="url(#linearGradient-5)" x="0" y="2" width="24" height="3"></rect>
                        <polygon id="矩形备份-160" fill="#AAAAAA" points="24 2 28 0 28 3 24 5"></polygon>
                    </g>
                    <g id="编组-27备份" transform="translate(79.000000, 0.000000)">
                        <polygon id="矩形备份-158" fill="#CACACA" points="5 0 28 0 24 2 0 2"></polygon>
                        <rect id="矩形备份-159" fill="url(#linearGradient-5)" x="0" y="2" width="24" height="3"></rect>
                        <polygon id="矩形备份-160" fill="#AAAAAA" points="24 2 28 0 28 3 24 5"></polygon>
                    </g>
                    <polygon id="路径-49备份" fill="#A7ACB1" fill-rule="nonzero" transform="translate(40.333333, 56.000000) rotate(-90.000000) translate(-40.333333, -56.000000) " points="90.3333333 55 90.3333333 57 -9.66666667 57 -9.66666667 55"></polygon>
                    <polygon id="路径-49备份-4" fill="#A7ACB1" fill-rule="nonzero" transform="translate(79.666667, 56.000000) rotate(-90.000000) translate(-79.666667, -56.000000) " points="129.666667 55 129.666667 57 29.6666667 57 29.6666667 55"></polygon>
                </g>
            </g>
        </g>
    </g>
</svg>