<?xml version="1.0" encoding="UTF-8"?>
<svg width="200px" height="200px" viewBox="0 0 200 200" version="1.1" xmlns="http://www.w3.org/2000/svg" xmlns:xlink="http://www.w3.org/1999/xlink">
    <!-- Generator: Sketch 61.2 (89653) - https://sketch.com -->
    <title>冷干机-关闭备份</title>
    <desc>Created with Sketch.</desc>
    <defs>
        <linearGradient x1="0%" y1="15.2777778%" x2="100%" y2="84.7222222%" id="linearGradient-1">
            <stop stop-color="#C3C7CB" offset="0%"></stop>
            <stop stop-color="#8D9399" offset="100%"></stop>
        </linearGradient>
        <linearGradient x1="99.149813%" y1="81.7429373%" x2="2.17621548%" y2="17.713648%" id="linearGradient-2">
            <stop stop-color="#C2C5C8" offset="0%"></stop>
            <stop stop-color="#EFEFEF" offset="100%"></stop>
        </linearGradient>
        <linearGradient x1="49.4297295%" y1="97.8264614%" x2="50.5702705%" y2="2.60985615%" id="linearGradient-3">
            <stop stop-color="#8D9399" offset="0%"></stop>
            <stop stop-color="#C3C7CB" offset="100%"></stop>
        </linearGradient>
    </defs>
    <g id="20200304-上传iconfont" stroke="none" stroke-width="1" fill="none" fill-rule="evenodd">
        <g id="设备-立体" transform="translate(-600.000000, -2564.000000)">
            <g id="冷干机" transform="translate(600.000000, 2564.000000)">
                <g id="冷干机-关闭" transform="translate(35.000000, 49.000000)">
                    <polygon id="矩形" fill="url(#linearGradient-1)" points="0 3 120 3 120 103 -4.26325641e-13 103"></polygon>
                    <rect id="矩形备份-37" fill="url(#linearGradient-2)" x="4" y="8" width="112" height="90"></rect>
                    <polygon id="矩形" fill="#BEBEBE" points="13 25 37 25.0121238 37 53 13 52.9878762"></polygon>
                    <path d="M15.25,62.5 C15.828125,62.1145833 16.3164062,61.7317708 16.7148438,61.3515625 C17.1236979,60.9635417 17.4921875,60.5286458 17.8203125,60.046875 C18.1458333,60.5546875 18.4947917,60.9882812 18.8671875,61.3476562 C19.2447917,61.7096354 19.7252604,62.0742188 20.3085938,62.4414062 C20.4205729,62.2434896 20.5351562,62.0494792 20.6523438,61.859375 C20.1054688,61.5677083 19.6419271,61.2454427 19.2617188,60.8925781 C18.8815104,60.5397135 18.5130208,60.0885417 18.15625,59.5390625 L18.15625,59.5390625 L18.3046875,59.2929688 L17.625,59.21875 C17.3203125,59.78125 16.9466146,60.2832031 16.5039062,60.7246094 C16.0611979,61.1660156 15.5260417,61.5690104 14.8984375,61.9335938 C15.0260417,62.1210938 15.1432292,62.3098958 15.25,62.5 Z M14.546875,61.6054688 L15.0976562,61.2851562 C15.0950521,61.2825521 15.0924479,61.2786458 15.0898438,61.2734375 C14.6315104,60.5729167 14.2838542,60.0651042 14.046875,59.75 L14.046875,59.75 L13.5429688,60.03125 C13.7226562,60.296875 13.9856771,60.7070312 14.3320312,61.2617188 C14.4257812,61.4153646 14.4973958,61.5299479 14.546875,61.6054688 L14.546875,61.6054688 Z M17.953125,62.78125 L18.46875,62.4492188 C18.1744792,62.0507812 17.8789062,61.6744792 17.5820312,61.3203125 L17.5820312,61.3203125 L17.1132812,61.6132812 C17.4700521,62.0820312 17.75,62.4713542 17.953125,62.78125 L17.953125,62.78125 Z M14.09375,66.3398438 C14.4010417,65.1627604 14.6966146,64.09375 14.9804688,63.1328125 C14.8242188,63.0859375 14.6302083,63.0117188 14.3984375,62.9101562 C14.0416667,64.2122396 13.7356771,65.2773438 13.4804688,66.1054688 L13.4804688,66.1054688 L14.09375,66.3398438 Z M18.8046875,66.7265625 L19.1914062,66.234375 C18.9049479,66.0442708 18.5794271,65.8333333 18.2148438,65.6015625 L18.2148438,65.6015625 L19.9960938,63.7460938 L19.9960938,63.140625 L15.4804688,63.140625 L15.4804688,63.7070312 L19.234375,63.7070312 L17.6992188,65.2734375 L16.1796875,64.3320312 L15.8359375,64.7890625 C16.7109375,65.3307292 17.7005208,65.9765625 18.8046875,66.7265625 L18.8046875,66.7265625 Z M25.3203125,66.671875 L25.3203125,63.2148438 L28.5859375,63.2148438 L28.5859375,62.5898438 L25.3203125,62.5898438 L25.3203125,60.4140625 L28.0351562,60.4140625 L28.0351562,59.8007812 L21.9453125,59.8007812 L21.9453125,60.4140625 L24.65625,60.4140625 L24.65625,62.5898438 L21.3984375,62.5898438 L21.3984375,63.2148438 L24.65625,63.2148438 L24.65625,66.671875 L25.3203125,66.671875 Z M31.0546875,66.6367188 L31.0546875,62.7148438 C31.0677083,62.7252604 31.0859375,62.7434896 31.109375,62.7695312 C31.4401042,63.1132812 31.6875,63.3736979 31.8515625,63.5507812 L31.8515625,63.5507812 L32.21875,63.1328125 C31.9192708,62.8229167 31.6002604,62.5104167 31.2617188,62.1953125 L31.2617188,62.1953125 L31.0546875,62.4179688 L31.0546875,61.2851562 L32.015625,61.2851562 L32.015625,60.7539062 L31.0546875,60.7539062 L31.0546875,59.2734375 L30.4960938,59.2734375 L30.4960938,60.7539062 L29.5039062,60.7539062 L29.5039062,61.2851562 L30.4882812,61.2851562 C30.3398438,61.8528646 30.1744792,62.34375 29.9921875,62.7578125 C29.8151042,63.1588542 29.5976562,63.546875 29.3398438,63.921875 C29.3841146,64.0390625 29.4335938,64.2148438 29.4882812,64.4492188 C29.5091146,64.5403646 29.5247396,64.6106771 29.5351562,64.6601562 C29.7356771,64.3658854 29.9114583,64.0546875 30.0625,63.7265625 C30.21875,63.3854167 30.3632812,62.9908854 30.4960938,62.5429688 L30.4960938,62.5429688 L30.4960938,66.6367188 L31.0546875,66.6367188 Z M31.9257812,66.6523438 C32.2799479,66.2382812 32.5442708,65.8528646 32.71875,65.4960938 C32.9036458,65.1210938 33.0325521,64.6888021 33.1054688,64.1992188 C33.1731771,63.7460938 33.2070312,63.1354167 33.2070312,62.3671875 L33.2070312,62.3671875 L33.2070312,60.3007812 L34.6914062,60.3007812 L34.6914062,65.5546875 C34.6914062,65.8411458 34.7486979,66.0533854 34.8632812,66.1914062 C34.9778646,66.3294271 35.15625,66.3984375 35.3984375,66.3984375 L35.3984375,66.3984375 L35.71875,66.3984375 C35.953125,66.3984375 36.1347656,66.3352865 36.2636719,66.2089844 C36.3925781,66.0826823 36.4726562,65.8828125 36.5039062,65.609375 C36.5507812,65.2239583 36.5924479,64.7760417 36.6289062,64.265625 C36.4934896,64.2317708 36.3268229,64.1770833 36.1289062,64.1015625 C36.0976562,64.7239583 36.0638021,65.1536458 36.0273438,65.390625 C36.0117188,65.5494792 35.9739583,65.6627604 35.9140625,65.7304688 C35.859375,65.7929688 35.7773438,65.8242188 35.6679688,65.8242188 L35.6679688,65.8242188 L35.5351562,65.8242188 C35.4388021,65.8242188 35.3710938,65.7981771 35.3320312,65.7460938 C35.2929688,65.6940104 35.2734375,65.6002604 35.2734375,65.4648438 L35.2734375,65.4648438 L35.2734375,59.7265625 L32.6210938,59.7265625 L32.6210938,62.3359375 C32.6210938,63.0833333 32.5924479,63.65625 32.5351562,64.0546875 C32.4726562,64.4895833 32.3541667,64.8684896 32.1796875,65.1914062 C32.0234375,65.4856771 31.7682292,65.8255208 31.4140625,66.2109375 C31.4973958,66.2734375 31.625,66.3828125 31.796875,66.5390625 C31.8567708,66.59375 31.8997396,66.6315104 31.9257812,66.6523438 Z" id="冷干机" fill="#9E9E9E" fill-rule="nonzero"></path>
                    <rect id="矩形" fill="#939393" x="19" y="44" width="12" height="6" rx="3"></rect>
                    <circle id="椭圆形" fill="#C1C1C1" cx="22" cy="47" r="2.25"></circle>
                    <polygon id="矩形备份-53" fill="#646C73" points="17 29.1570929 33.13898 29 33.13898 41.104235 17 41.2613279"></polygon>
                    <polygon id="矩形备份-54" fill="#DCDCDC" points="19 31.1746523 31.104235 31 31.104235 39.06949 19 39.2441423"></polygon>
                    <polygon id="矩形备份-36" fill="url(#linearGradient-3)" transform="translate(125.500000, 51.500000) scale(-1, 1) translate(-125.500000, -51.500000) " points="120 -2.29139624e-13 131 3 131 103 120 100"></polygon>
                    <polygon id="路径-51" fill="#CED2D6" points="0 3 16 0 131 0 120 3"></polygon>
                    <g id="编组-23" transform="translate(121.000000, 46.000000)" fill="#646C73" fill-rule="nonzero">
                        <path d="M7.86263944,0.519238026 C8.12815694,0.443375881 8.40489983,0.59712193 8.48076197,0.862639436 C8.54819499,1.098655 8.43420919,1.34353999 8.22156507,1.44832552 L8.13736056,1.48076197 L1.13736056,3.48076197 C0.871843058,3.55662412 0.595100171,3.40287807 0.519238026,3.13736056 C0.451805009,2.901345 0.56579081,2.65646001 0.778434926,2.55167448 L0.862639436,2.51923803 L7.86263944,0.519238026 Z" id="路径-9"></path>
                        <path d="M7.86263944,2.51923803 C8.12815694,2.44337588 8.40489983,2.59712193 8.48076197,2.86263944 C8.54819499,3.098655 8.43420919,3.34353999 8.22156507,3.44832552 L8.13736056,3.48076197 L1.13736056,5.48076197 C0.871843058,5.55662412 0.595100171,5.40287807 0.519238026,5.13736056 C0.451805009,4.901345 0.56579081,4.65646001 0.778434926,4.55167448 L0.862639436,4.51923803 L7.86263944,2.51923803 Z" id="路径-9备份"></path>
                        <path d="M7.86263944,4.51923803 C8.12815694,4.44337588 8.40489983,4.59712193 8.48076197,4.86263944 C8.54819499,5.098655 8.43420919,5.34353999 8.22156507,5.44832552 L8.13736056,5.48076197 L1.13736056,7.48076197 C0.871843058,7.55662412 0.595100171,7.40287807 0.519238026,7.13736056 C0.451805009,6.901345 0.56579081,6.65646001 0.778434926,6.55167448 L0.862639436,6.51923803 L7.86263944,4.51923803 Z" id="路径-9备份-2"></path>
                        <path d="M7.86263944,6.51923803 C8.12815694,6.44337588 8.40489983,6.59712193 8.48076197,6.86263944 C8.54819499,7.098655 8.43420919,7.34353999 8.22156507,7.44832552 L8.13736056,7.48076197 L1.13736056,9.48076197 C0.871843058,9.55662412 0.595100171,9.40287807 0.519238026,9.13736056 C0.451805009,8.901345 0.56579081,8.65646001 0.778434926,8.55167448 L0.862639436,8.51923803 L7.86263944,6.51923803 Z" id="路径-9备份-3"></path>
                        <path d="M7.86263944,8.51923803 C8.12815694,8.44337588 8.40489983,8.59712193 8.48076197,8.86263944 C8.54819499,9.098655 8.43420919,9.34353999 8.22156507,9.44832552 L8.13736056,9.48076197 L1.13736056,11.480762 C0.871843058,11.5566241 0.595100171,11.4028781 0.519238026,11.1373606 C0.451805009,10.901345 0.56579081,10.65646 0.778434926,10.5516745 L0.862639436,10.519238 L7.86263944,8.51923803 Z" id="路径-9备份-4"></path>
                        <path d="M7.86263944,10.519238 C8.12815694,10.4433759 8.40489983,10.5971219 8.48076197,10.8626394 C8.54819499,11.098655 8.43420919,11.34354 8.22156507,11.4483255 L8.13736056,11.480762 L1.13736056,13.480762 C0.871843058,13.5566241 0.595100171,13.4028781 0.519238026,13.1373606 C0.451805009,12.901345 0.56579081,12.65646 0.778434926,12.5516745 L0.862639436,12.519238 L7.86263944,10.519238 Z" id="路径-9备份-5"></path>
                        <path d="M7.86263944,12.519238 C8.12815694,12.4433759 8.40489983,12.5971219 8.48076197,12.8626394 C8.54819499,13.098655 8.43420919,13.34354 8.22156507,13.4483255 L8.13736056,13.480762 L1.13736056,15.480762 C0.871843058,15.5566241 0.595100171,15.4028781 0.519238026,15.1373606 C0.451805009,14.901345 0.56579081,14.65646 0.778434926,14.5516745 L0.862639436,14.519238 L7.86263944,12.519238 Z" id="路径-9备份-6"></path>
                        <path d="M7.86263944,14.519238 C8.12815694,14.4433759 8.40489983,14.5971219 8.48076197,14.8626394 C8.54819499,15.098655 8.43420919,15.34354 8.22156507,15.4483255 L8.13736056,15.480762 L1.13736056,17.480762 C0.871843058,17.5566241 0.595100171,17.4028781 0.519238026,17.1373606 C0.451805009,16.901345 0.56579081,16.65646 0.778434926,16.5516745 L0.862639436,16.519238 L7.86263944,14.519238 Z" id="路径-9备份-7"></path>
                        <path d="M7.86263944,16.519238 C8.12815694,16.4433759 8.40489983,16.5971219 8.48076197,16.8626394 C8.54819499,17.098655 8.43420919,17.34354 8.22156507,17.4483255 L8.13736056,17.480762 L1.13736056,19.480762 C0.871843058,19.5566241 0.595100171,19.4028781 0.519238026,19.1373606 C0.451805009,18.901345 0.56579081,18.65646 0.778434926,18.5516745 L0.862639436,18.519238 L7.86263944,16.519238 Z" id="路径-9备份-8"></path>
                        <path d="M7.86263944,18.519238 C8.12815694,18.4433759 8.40489983,18.5971219 8.48076197,18.8626394 C8.54819499,19.098655 8.43420919,19.34354 8.22156507,19.4483255 L8.13736056,19.480762 L1.13736056,21.480762 C0.871843058,21.5566241 0.595100171,21.4028781 0.519238026,21.1373606 C0.451805009,20.901345 0.56579081,20.65646 0.778434926,20.5516745 L0.862639436,20.519238 L7.86263944,18.519238 Z" id="路径-9备份-9"></path>
                        <path d="M7.86263944,20.519238 C8.12815694,20.4433759 8.40489983,20.5971219 8.48076197,20.8626394 C8.54819499,21.098655 8.43420919,21.34354 8.22156507,21.4483255 L8.13736056,21.480762 L1.13736056,23.480762 C0.871843058,23.5566241 0.595100171,23.4028781 0.519238026,23.1373606 C0.451805009,22.901345 0.56579081,22.65646 0.778434926,22.5516745 L0.862639436,22.519238 L7.86263944,20.519238 Z" id="路径-9备份-10"></path>
                        <path d="M7.86263944,22.519238 C8.12815694,22.4433759 8.40489983,22.5971219 8.48076197,22.8626394 C8.54819499,23.098655 8.43420919,23.34354 8.22156507,23.4483255 L8.13736056,23.480762 L1.13736056,25.480762 C0.871843058,25.5566241 0.595100171,25.4028781 0.519238026,25.1373606 C0.451805009,24.901345 0.56579081,24.65646 0.778434926,24.5516745 L0.862639436,24.519238 L7.86263944,22.519238 Z" id="路径-9备份-11"></path>
                        <path d="M7.86263944,24.519238 C8.12815694,24.4433759 8.40489983,24.5971219 8.48076197,24.8626394 C8.54819499,25.098655 8.43420919,25.34354 8.22156507,25.4483255 L8.13736056,25.480762 L1.13736056,27.480762 C0.871843058,27.5566241 0.595100171,27.4028781 0.519238026,27.1373606 C0.451805009,26.901345 0.56579081,26.65646 0.778434926,26.5516745 L0.862639436,26.519238 L7.86263944,24.519238 Z" id="路径-9"></path>
                        <path d="M7.86263944,26.519238 C8.12815694,26.4433759 8.40489983,26.5971219 8.48076197,26.8626394 C8.54819499,27.098655 8.43420919,27.34354 8.22156507,27.4483255 L8.13736056,27.480762 L1.13736056,29.480762 C0.871843058,29.5566241 0.595100171,29.4028781 0.519238026,29.1373606 C0.451805009,28.901345 0.56579081,28.65646 0.778434926,28.5516745 L0.862639436,28.519238 L7.86263944,26.519238 Z" id="路径-9备份"></path>
                        <path d="M7.86263944,28.519238 C8.12815694,28.4433759 8.40489983,28.5971219 8.48076197,28.8626394 C8.54819499,29.098655 8.43420919,29.34354 8.22156507,29.4483255 L8.13736056,29.480762 L1.13736056,31.480762 C0.871843058,31.5566241 0.595100171,31.4028781 0.519238026,31.1373606 C0.451805009,30.901345 0.56579081,30.65646 0.778434926,30.5516745 L0.862639436,30.519238 L7.86263944,28.519238 Z" id="路径-9备份-2"></path>
                        <path d="M7.86263944,30.519238 C8.12815694,30.4433759 8.40489983,30.5971219 8.48076197,30.8626394 C8.54819499,31.098655 8.43420919,31.34354 8.22156507,31.4483255 L8.13736056,31.480762 L1.13736056,33.480762 C0.871843058,33.5566241 0.595100171,33.4028781 0.519238026,33.1373606 C0.451805009,32.901345 0.56579081,32.65646 0.778434926,32.5516745 L0.862639436,32.519238 L7.86263944,30.519238 Z" id="路径-9备份-3"></path>
                        <path d="M7.86263944,32.519238 C8.12815694,32.4433759 8.40489983,32.5971219 8.48076197,32.8626394 C8.54819499,33.098655 8.43420919,33.34354 8.22156507,33.4483255 L8.13736056,33.480762 L1.13736056,35.480762 C0.871843058,35.5566241 0.595100171,35.4028781 0.519238026,35.1373606 C0.451805009,34.901345 0.56579081,34.65646 0.778434926,34.5516745 L0.862639436,34.519238 L7.86263944,32.519238 Z" id="路径-9备份-4"></path>
                        <path d="M7.86263944,34.519238 C8.12815694,34.4433759 8.40489983,34.5971219 8.48076197,34.8626394 C8.54819499,35.098655 8.43420919,35.34354 8.22156507,35.4483255 L8.13736056,35.480762 L1.13736056,37.480762 C0.871843058,37.5566241 0.595100171,37.4028781 0.519238026,37.1373606 C0.451805009,36.901345 0.56579081,36.65646 0.778434926,36.5516745 L0.862639436,36.519238 L7.86263944,34.519238 Z" id="路径-9备份-5"></path>
                        <path d="M7.86263944,36.519238 C8.12815694,36.4433759 8.40489983,36.5971219 8.48076197,36.8626394 C8.54819499,37.098655 8.43420919,37.34354 8.22156507,37.4483255 L8.13736056,37.480762 L1.13736056,39.480762 C0.871843058,39.5566241 0.595100171,39.4028781 0.519238026,39.1373606 C0.451805009,38.901345 0.56579081,38.65646 0.778434926,38.5516745 L0.862639436,38.519238 L7.86263944,36.519238 Z" id="路径-9备份-6"></path>
                        <path d="M7.86263944,38.519238 C8.12815694,38.4433759 8.40489983,38.5971219 8.48076197,38.8626394 C8.54819499,39.098655 8.43420919,39.34354 8.22156507,39.4483255 L8.13736056,39.480762 L1.13736056,41.480762 C0.871843058,41.5566241 0.595100171,41.4028781 0.519238026,41.1373606 C0.451805009,40.901345 0.56579081,40.65646 0.778434926,40.5516745 L0.862639436,40.519238 L7.86263944,38.519238 Z" id="路径-9备份-7"></path>
                        <path d="M7.86263944,40.519238 C8.12815694,40.4433759 8.40489983,40.5971219 8.48076197,40.8626394 C8.54819499,41.098655 8.43420919,41.34354 8.22156507,41.4483255 L8.13736056,41.480762 L1.13736056,43.480762 C0.871843058,43.5566241 0.595100171,43.4028781 0.519238026,43.1373606 C0.451805009,42.901345 0.56579081,42.65646 0.778434926,42.5516745 L0.862639436,42.519238 L7.86263944,40.519238 Z" id="路径-9备份-8"></path>
                        <path d="M7.86263944,42.519238 C8.12815694,42.4433759 8.40489983,42.5971219 8.48076197,42.8626394 C8.54819499,43.098655 8.43420919,43.34354 8.22156507,43.4483255 L8.13736056,43.480762 L1.13736056,45.480762 C0.871843058,45.5566241 0.595100171,45.4028781 0.519238026,45.1373606 C0.451805009,44.901345 0.56579081,44.65646 0.778434926,44.5516745 L0.862639436,44.519238 L7.86263944,42.519238 Z" id="路径-9备份-9"></path>
                        <path d="M7.86263944,44.519238 C8.12815694,44.4433759 8.40489983,44.5971219 8.48076197,44.8626394 C8.54819499,45.098655 8.43420919,45.34354 8.22156507,45.4483255 L8.13736056,45.480762 L1.13736056,47.480762 C0.871843058,47.5566241 0.595100171,47.4028781 0.519238026,47.1373606 C0.451805009,46.901345 0.56579081,46.65646 0.778434926,46.5516745 L0.862639436,46.519238 L7.86263944,44.519238 Z" id="路径-9备份-10"></path>
                        <path d="M7.86263944,46.519238 C8.12815694,46.4433759 8.40489983,46.5971219 8.48076197,46.8626394 C8.54819499,47.098655 8.43420919,47.34354 8.22156507,47.4483255 L8.13736056,47.480762 L1.13736056,49.480762 C0.871843058,49.5566241 0.595100171,49.4028781 0.519238026,49.1373606 C0.451805009,48.901345 0.56579081,48.65646 0.778434926,48.5516745 L0.862639436,48.519238 L7.86263944,46.519238 Z" id="路径-9备份-11"></path>
                    </g>
                </g>
            </g>
        </g>
    </g>
</svg>